Coordinates
version=1
nRows=21
nColumns=12
inDegrees=yes

Units are S.I. units (second, meters, Newtons, ...)
Angles are in degrees

endheader
time	SC_y	SC_z	SC_x	AC_y	AC_z	AC_x	GH_y	GH_z	GH_yy	EL_x	PS_y
       0.0              -34.83          27.29          69.33          39.89         -8.868          15.05          -3.35          78.87          102.8           60.0          26.33
   0.03838              -34.83          27.29          69.32           39.9         -8.868          15.05         -3.347          78.86          102.8           60.0          26.35
   0.07676              -34.83          27.29          69.32           39.9         -8.868          15.05         -3.342          78.85          102.7          59.99          26.37
    0.1151              -34.83          27.28          69.31           39.9         -8.868          15.04         -3.338          78.83          102.7          59.98          26.38
    0.1535              -34.83          27.28          69.31           39.9         -8.869          15.04         -3.333          78.82          102.6          59.98           26.4
    0.1919              -34.82          27.27           69.3           39.9         -8.869          15.04         -3.329           78.8          102.6          59.97          26.42
    0.2303              -34.82          27.27           69.3           39.9         -8.869          15.04         -3.323          78.79          102.5          59.96          26.45
    0.2687              -34.82          27.26          69.29          39.91         -8.869          15.03         -3.318          78.77          102.5          59.95          26.47
    0.3071              -34.82          27.26          69.28          39.91         -8.869          15.03         -3.312          78.75          102.4          59.94           26.5
    0.3454              -34.81          27.25          69.27          39.91         -8.869          15.03         -3.305          78.73          102.3          59.93          26.52
    0.3838              -34.81          27.25          69.27          39.91         -8.869          15.03         -3.298           78.7          102.3          59.92          26.55
    0.4222              -34.81          27.24          69.26          39.92         -8.869          15.02         -3.291          78.68          102.2           59.9          26.58
    0.4606               -34.8          27.23          69.25          39.92         -8.869          15.02         -3.283          78.65          102.1          59.89          26.62
     0.499               -34.8          27.22          69.24          39.92         -8.869          15.01         -3.274          78.62          102.0          59.88          26.66
    0.5373               -34.8          27.22          69.23          39.93          -8.87          15.01         -3.265          78.59          101.9          59.86           26.7
    0.5757              -34.79          27.21          69.21          39.93          -8.87          15.01         -3.255          78.56          101.8          59.84          26.74
    0.6141              -34.79           27.2           69.2          39.93          -8.87           15.0         -3.244          78.52          101.7          59.82          26.79
    0.6525              -34.78          27.19          69.18          39.94          -8.87          14.99         -3.231          78.49          101.6           59.8          26.84
    0.6909              -34.78          27.17          69.17          39.94          -8.87          14.99         -3.218          78.44          101.4          59.78          26.89
    0.7293              -34.77          27.16          69.15          39.95          -8.87          14.98         -3.204           78.4          101.3          59.76          26.95
    0.7676              -34.76          27.15          69.13          39.96         -8.871          14.97         -3.188          78.34          101.1          59.73          27.02
